G04 #@! TF.GenerationSoftware,KiCad,Pcbnew,(5.1.4)-1*
G04 #@! TF.CreationDate,2020-03-21T14:56:38-06:00*
G04 #@! TF.ProjectId,SonicAnemometerController,536f6e69-6341-46e6-956d-6f6d65746572,rev?*
G04 #@! TF.SameCoordinates,PX5bfb5d0PY5122438*
G04 #@! TF.FileFunction,Copper,L2,Bot*
G04 #@! TF.FilePolarity,Positive*
%FSLAX46Y46*%
G04 Gerber Fmt 4.6, Leading zero omitted, Abs format (unit mm)*
G04 Created by KiCad (PCBNEW (5.1.4)-1) date 2020-03-21 14:56:38*
%MOMM*%
%LPD*%
G04 APERTURE LIST*
%ADD10O,1.700000X1.700000*%
%ADD11R,1.700000X1.700000*%
%ADD12C,0.100000*%
%ADD13C,1.150000*%
%ADD14O,1.600000X1.600000*%
%ADD15R,1.600000X1.600000*%
%ADD16R,1.300000X1.550000*%
%ADD17R,1.550000X1.300000*%
%ADD18C,0.600000*%
%ADD19C,0.400000*%
%ADD20C,0.254000*%
G04 APERTURE END LIST*
D10*
X9130000Y3575000D03*
X11670000Y3575000D03*
X14210000Y3575000D03*
D11*
X16750000Y3575000D03*
D10*
X21750000Y1975000D03*
X21750000Y4515000D03*
X21750000Y7055000D03*
D11*
X21750000Y9595000D03*
D12*
G36*
X11674505Y9998796D02*
G01*
X11698773Y9995196D01*
X11722572Y9989235D01*
X11745671Y9980970D01*
X11767850Y9970480D01*
X11788893Y9957868D01*
X11808599Y9943253D01*
X11826777Y9926777D01*
X11843253Y9908599D01*
X11857868Y9888893D01*
X11870480Y9867850D01*
X11880970Y9845671D01*
X11889235Y9822572D01*
X11895196Y9798773D01*
X11898796Y9774505D01*
X11900000Y9750001D01*
X11900000Y9099999D01*
X11898796Y9075495D01*
X11895196Y9051227D01*
X11889235Y9027428D01*
X11880970Y9004329D01*
X11870480Y8982150D01*
X11857868Y8961107D01*
X11843253Y8941401D01*
X11826777Y8923223D01*
X11808599Y8906747D01*
X11788893Y8892132D01*
X11767850Y8879520D01*
X11745671Y8869030D01*
X11722572Y8860765D01*
X11698773Y8854804D01*
X11674505Y8851204D01*
X11650001Y8850000D01*
X10749999Y8850000D01*
X10725495Y8851204D01*
X10701227Y8854804D01*
X10677428Y8860765D01*
X10654329Y8869030D01*
X10632150Y8879520D01*
X10611107Y8892132D01*
X10591401Y8906747D01*
X10573223Y8923223D01*
X10556747Y8941401D01*
X10542132Y8961107D01*
X10529520Y8982150D01*
X10519030Y9004329D01*
X10510765Y9027428D01*
X10504804Y9051227D01*
X10501204Y9075495D01*
X10500000Y9099999D01*
X10500000Y9750001D01*
X10501204Y9774505D01*
X10504804Y9798773D01*
X10510765Y9822572D01*
X10519030Y9845671D01*
X10529520Y9867850D01*
X10542132Y9888893D01*
X10556747Y9908599D01*
X10573223Y9926777D01*
X10591401Y9943253D01*
X10611107Y9957868D01*
X10632150Y9970480D01*
X10654329Y9980970D01*
X10677428Y9989235D01*
X10701227Y9995196D01*
X10725495Y9998796D01*
X10749999Y10000000D01*
X11650001Y10000000D01*
X11674505Y9998796D01*
X11674505Y9998796D01*
G37*
D13*
X11200000Y9425000D03*
D12*
G36*
X11674505Y12048796D02*
G01*
X11698773Y12045196D01*
X11722572Y12039235D01*
X11745671Y12030970D01*
X11767850Y12020480D01*
X11788893Y12007868D01*
X11808599Y11993253D01*
X11826777Y11976777D01*
X11843253Y11958599D01*
X11857868Y11938893D01*
X11870480Y11917850D01*
X11880970Y11895671D01*
X11889235Y11872572D01*
X11895196Y11848773D01*
X11898796Y11824505D01*
X11900000Y11800001D01*
X11900000Y11149999D01*
X11898796Y11125495D01*
X11895196Y11101227D01*
X11889235Y11077428D01*
X11880970Y11054329D01*
X11870480Y11032150D01*
X11857868Y11011107D01*
X11843253Y10991401D01*
X11826777Y10973223D01*
X11808599Y10956747D01*
X11788893Y10942132D01*
X11767850Y10929520D01*
X11745671Y10919030D01*
X11722572Y10910765D01*
X11698773Y10904804D01*
X11674505Y10901204D01*
X11650001Y10900000D01*
X10749999Y10900000D01*
X10725495Y10901204D01*
X10701227Y10904804D01*
X10677428Y10910765D01*
X10654329Y10919030D01*
X10632150Y10929520D01*
X10611107Y10942132D01*
X10591401Y10956747D01*
X10573223Y10973223D01*
X10556747Y10991401D01*
X10542132Y11011107D01*
X10529520Y11032150D01*
X10519030Y11054329D01*
X10510765Y11077428D01*
X10504804Y11101227D01*
X10501204Y11125495D01*
X10500000Y11149999D01*
X10500000Y11800001D01*
X10501204Y11824505D01*
X10504804Y11848773D01*
X10510765Y11872572D01*
X10519030Y11895671D01*
X10529520Y11917850D01*
X10542132Y11938893D01*
X10556747Y11958599D01*
X10573223Y11976777D01*
X10591401Y11993253D01*
X10611107Y12007868D01*
X10632150Y12020480D01*
X10654329Y12030970D01*
X10677428Y12039235D01*
X10701227Y12045196D01*
X10725495Y12048796D01*
X10749999Y12050000D01*
X11650001Y12050000D01*
X11674505Y12048796D01*
X11674505Y12048796D01*
G37*
D13*
X11200000Y11475000D03*
D12*
G36*
X4424505Y21273796D02*
G01*
X4448773Y21270196D01*
X4472572Y21264235D01*
X4495671Y21255970D01*
X4517850Y21245480D01*
X4538893Y21232868D01*
X4558599Y21218253D01*
X4576777Y21201777D01*
X4593253Y21183599D01*
X4607868Y21163893D01*
X4620480Y21142850D01*
X4630970Y21120671D01*
X4639235Y21097572D01*
X4645196Y21073773D01*
X4648796Y21049505D01*
X4650000Y21025001D01*
X4650000Y20374999D01*
X4648796Y20350495D01*
X4645196Y20326227D01*
X4639235Y20302428D01*
X4630970Y20279329D01*
X4620480Y20257150D01*
X4607868Y20236107D01*
X4593253Y20216401D01*
X4576777Y20198223D01*
X4558599Y20181747D01*
X4538893Y20167132D01*
X4517850Y20154520D01*
X4495671Y20144030D01*
X4472572Y20135765D01*
X4448773Y20129804D01*
X4424505Y20126204D01*
X4400001Y20125000D01*
X3499999Y20125000D01*
X3475495Y20126204D01*
X3451227Y20129804D01*
X3427428Y20135765D01*
X3404329Y20144030D01*
X3382150Y20154520D01*
X3361107Y20167132D01*
X3341401Y20181747D01*
X3323223Y20198223D01*
X3306747Y20216401D01*
X3292132Y20236107D01*
X3279520Y20257150D01*
X3269030Y20279329D01*
X3260765Y20302428D01*
X3254804Y20326227D01*
X3251204Y20350495D01*
X3250000Y20374999D01*
X3250000Y21025001D01*
X3251204Y21049505D01*
X3254804Y21073773D01*
X3260765Y21097572D01*
X3269030Y21120671D01*
X3279520Y21142850D01*
X3292132Y21163893D01*
X3306747Y21183599D01*
X3323223Y21201777D01*
X3341401Y21218253D01*
X3361107Y21232868D01*
X3382150Y21245480D01*
X3404329Y21255970D01*
X3427428Y21264235D01*
X3451227Y21270196D01*
X3475495Y21273796D01*
X3499999Y21275000D01*
X4400001Y21275000D01*
X4424505Y21273796D01*
X4424505Y21273796D01*
G37*
D13*
X3950000Y20700000D03*
D12*
G36*
X4424505Y23323796D02*
G01*
X4448773Y23320196D01*
X4472572Y23314235D01*
X4495671Y23305970D01*
X4517850Y23295480D01*
X4538893Y23282868D01*
X4558599Y23268253D01*
X4576777Y23251777D01*
X4593253Y23233599D01*
X4607868Y23213893D01*
X4620480Y23192850D01*
X4630970Y23170671D01*
X4639235Y23147572D01*
X4645196Y23123773D01*
X4648796Y23099505D01*
X4650000Y23075001D01*
X4650000Y22424999D01*
X4648796Y22400495D01*
X4645196Y22376227D01*
X4639235Y22352428D01*
X4630970Y22329329D01*
X4620480Y22307150D01*
X4607868Y22286107D01*
X4593253Y22266401D01*
X4576777Y22248223D01*
X4558599Y22231747D01*
X4538893Y22217132D01*
X4517850Y22204520D01*
X4495671Y22194030D01*
X4472572Y22185765D01*
X4448773Y22179804D01*
X4424505Y22176204D01*
X4400001Y22175000D01*
X3499999Y22175000D01*
X3475495Y22176204D01*
X3451227Y22179804D01*
X3427428Y22185765D01*
X3404329Y22194030D01*
X3382150Y22204520D01*
X3361107Y22217132D01*
X3341401Y22231747D01*
X3323223Y22248223D01*
X3306747Y22266401D01*
X3292132Y22286107D01*
X3279520Y22307150D01*
X3269030Y22329329D01*
X3260765Y22352428D01*
X3254804Y22376227D01*
X3251204Y22400495D01*
X3250000Y22424999D01*
X3250000Y23075001D01*
X3251204Y23099505D01*
X3254804Y23123773D01*
X3260765Y23147572D01*
X3269030Y23170671D01*
X3279520Y23192850D01*
X3292132Y23213893D01*
X3306747Y23233599D01*
X3323223Y23251777D01*
X3341401Y23268253D01*
X3361107Y23282868D01*
X3382150Y23295480D01*
X3404329Y23305970D01*
X3427428Y23314235D01*
X3451227Y23320196D01*
X3475495Y23323796D01*
X3499999Y23325000D01*
X4400001Y23325000D01*
X4424505Y23323796D01*
X4424505Y23323796D01*
G37*
D13*
X3950000Y22750000D03*
D10*
X4300000Y5475000D03*
D11*
X4300000Y2935000D03*
D12*
G36*
X7324505Y3873796D02*
G01*
X7348773Y3870196D01*
X7372572Y3864235D01*
X7395671Y3855970D01*
X7417850Y3845480D01*
X7438893Y3832868D01*
X7458599Y3818253D01*
X7476777Y3801777D01*
X7493253Y3783599D01*
X7507868Y3763893D01*
X7520480Y3742850D01*
X7530970Y3720671D01*
X7539235Y3697572D01*
X7545196Y3673773D01*
X7548796Y3649505D01*
X7550000Y3625001D01*
X7550000Y2974999D01*
X7548796Y2950495D01*
X7545196Y2926227D01*
X7539235Y2902428D01*
X7530970Y2879329D01*
X7520480Y2857150D01*
X7507868Y2836107D01*
X7493253Y2816401D01*
X7476777Y2798223D01*
X7458599Y2781747D01*
X7438893Y2767132D01*
X7417850Y2754520D01*
X7395671Y2744030D01*
X7372572Y2735765D01*
X7348773Y2729804D01*
X7324505Y2726204D01*
X7300001Y2725000D01*
X6399999Y2725000D01*
X6375495Y2726204D01*
X6351227Y2729804D01*
X6327428Y2735765D01*
X6304329Y2744030D01*
X6282150Y2754520D01*
X6261107Y2767132D01*
X6241401Y2781747D01*
X6223223Y2798223D01*
X6206747Y2816401D01*
X6192132Y2836107D01*
X6179520Y2857150D01*
X6169030Y2879329D01*
X6160765Y2902428D01*
X6154804Y2926227D01*
X6151204Y2950495D01*
X6150000Y2974999D01*
X6150000Y3625001D01*
X6151204Y3649505D01*
X6154804Y3673773D01*
X6160765Y3697572D01*
X6169030Y3720671D01*
X6179520Y3742850D01*
X6192132Y3763893D01*
X6206747Y3783599D01*
X6223223Y3801777D01*
X6241401Y3818253D01*
X6261107Y3832868D01*
X6282150Y3845480D01*
X6304329Y3855970D01*
X6327428Y3864235D01*
X6351227Y3870196D01*
X6375495Y3873796D01*
X6399999Y3875000D01*
X7300001Y3875000D01*
X7324505Y3873796D01*
X7324505Y3873796D01*
G37*
D13*
X6850000Y3300000D03*
D12*
G36*
X7324505Y5923796D02*
G01*
X7348773Y5920196D01*
X7372572Y5914235D01*
X7395671Y5905970D01*
X7417850Y5895480D01*
X7438893Y5882868D01*
X7458599Y5868253D01*
X7476777Y5851777D01*
X7493253Y5833599D01*
X7507868Y5813893D01*
X7520480Y5792850D01*
X7530970Y5770671D01*
X7539235Y5747572D01*
X7545196Y5723773D01*
X7548796Y5699505D01*
X7550000Y5675001D01*
X7550000Y5024999D01*
X7548796Y5000495D01*
X7545196Y4976227D01*
X7539235Y4952428D01*
X7530970Y4929329D01*
X7520480Y4907150D01*
X7507868Y4886107D01*
X7493253Y4866401D01*
X7476777Y4848223D01*
X7458599Y4831747D01*
X7438893Y4817132D01*
X7417850Y4804520D01*
X7395671Y4794030D01*
X7372572Y4785765D01*
X7348773Y4779804D01*
X7324505Y4776204D01*
X7300001Y4775000D01*
X6399999Y4775000D01*
X6375495Y4776204D01*
X6351227Y4779804D01*
X6327428Y4785765D01*
X6304329Y4794030D01*
X6282150Y4804520D01*
X6261107Y4817132D01*
X6241401Y4831747D01*
X6223223Y4848223D01*
X6206747Y4866401D01*
X6192132Y4886107D01*
X6179520Y4907150D01*
X6169030Y4929329D01*
X6160765Y4952428D01*
X6154804Y4976227D01*
X6151204Y5000495D01*
X6150000Y5024999D01*
X6150000Y5675001D01*
X6151204Y5699505D01*
X6154804Y5723773D01*
X6160765Y5747572D01*
X6169030Y5770671D01*
X6179520Y5792850D01*
X6192132Y5813893D01*
X6206747Y5833599D01*
X6223223Y5851777D01*
X6241401Y5868253D01*
X6261107Y5882868D01*
X6282150Y5895480D01*
X6304329Y5905970D01*
X6327428Y5914235D01*
X6351227Y5920196D01*
X6375495Y5923796D01*
X6399999Y5925000D01*
X7300001Y5925000D01*
X7324505Y5923796D01*
X7324505Y5923796D01*
G37*
D13*
X6850000Y5350000D03*
D12*
G36*
X13374505Y20273796D02*
G01*
X13398773Y20270196D01*
X13422572Y20264235D01*
X13445671Y20255970D01*
X13467850Y20245480D01*
X13488893Y20232868D01*
X13508599Y20218253D01*
X13526777Y20201777D01*
X13543253Y20183599D01*
X13557868Y20163893D01*
X13570480Y20142850D01*
X13580970Y20120671D01*
X13589235Y20097572D01*
X13595196Y20073773D01*
X13598796Y20049505D01*
X13600000Y20025001D01*
X13600000Y19374999D01*
X13598796Y19350495D01*
X13595196Y19326227D01*
X13589235Y19302428D01*
X13580970Y19279329D01*
X13570480Y19257150D01*
X13557868Y19236107D01*
X13543253Y19216401D01*
X13526777Y19198223D01*
X13508599Y19181747D01*
X13488893Y19167132D01*
X13467850Y19154520D01*
X13445671Y19144030D01*
X13422572Y19135765D01*
X13398773Y19129804D01*
X13374505Y19126204D01*
X13350001Y19125000D01*
X12449999Y19125000D01*
X12425495Y19126204D01*
X12401227Y19129804D01*
X12377428Y19135765D01*
X12354329Y19144030D01*
X12332150Y19154520D01*
X12311107Y19167132D01*
X12291401Y19181747D01*
X12273223Y19198223D01*
X12256747Y19216401D01*
X12242132Y19236107D01*
X12229520Y19257150D01*
X12219030Y19279329D01*
X12210765Y19302428D01*
X12204804Y19326227D01*
X12201204Y19350495D01*
X12200000Y19374999D01*
X12200000Y20025001D01*
X12201204Y20049505D01*
X12204804Y20073773D01*
X12210765Y20097572D01*
X12219030Y20120671D01*
X12229520Y20142850D01*
X12242132Y20163893D01*
X12256747Y20183599D01*
X12273223Y20201777D01*
X12291401Y20218253D01*
X12311107Y20232868D01*
X12332150Y20245480D01*
X12354329Y20255970D01*
X12377428Y20264235D01*
X12401227Y20270196D01*
X12425495Y20273796D01*
X12449999Y20275000D01*
X13350001Y20275000D01*
X13374505Y20273796D01*
X13374505Y20273796D01*
G37*
D13*
X12900000Y19700000D03*
D12*
G36*
X13374505Y18223796D02*
G01*
X13398773Y18220196D01*
X13422572Y18214235D01*
X13445671Y18205970D01*
X13467850Y18195480D01*
X13488893Y18182868D01*
X13508599Y18168253D01*
X13526777Y18151777D01*
X13543253Y18133599D01*
X13557868Y18113893D01*
X13570480Y18092850D01*
X13580970Y18070671D01*
X13589235Y18047572D01*
X13595196Y18023773D01*
X13598796Y17999505D01*
X13600000Y17975001D01*
X13600000Y17324999D01*
X13598796Y17300495D01*
X13595196Y17276227D01*
X13589235Y17252428D01*
X13580970Y17229329D01*
X13570480Y17207150D01*
X13557868Y17186107D01*
X13543253Y17166401D01*
X13526777Y17148223D01*
X13508599Y17131747D01*
X13488893Y17117132D01*
X13467850Y17104520D01*
X13445671Y17094030D01*
X13422572Y17085765D01*
X13398773Y17079804D01*
X13374505Y17076204D01*
X13350001Y17075000D01*
X12449999Y17075000D01*
X12425495Y17076204D01*
X12401227Y17079804D01*
X12377428Y17085765D01*
X12354329Y17094030D01*
X12332150Y17104520D01*
X12311107Y17117132D01*
X12291401Y17131747D01*
X12273223Y17148223D01*
X12256747Y17166401D01*
X12242132Y17186107D01*
X12229520Y17207150D01*
X12219030Y17229329D01*
X12210765Y17252428D01*
X12204804Y17276227D01*
X12201204Y17300495D01*
X12200000Y17324999D01*
X12200000Y17975001D01*
X12201204Y17999505D01*
X12204804Y18023773D01*
X12210765Y18047572D01*
X12219030Y18070671D01*
X12229520Y18092850D01*
X12242132Y18113893D01*
X12256747Y18133599D01*
X12273223Y18151777D01*
X12291401Y18168253D01*
X12311107Y18182868D01*
X12332150Y18195480D01*
X12354329Y18205970D01*
X12377428Y18214235D01*
X12401227Y18220196D01*
X12425495Y18223796D01*
X12449999Y18225000D01*
X13350001Y18225000D01*
X13374505Y18223796D01*
X13374505Y18223796D01*
G37*
D13*
X12900000Y17650000D03*
D14*
X16600000Y17015000D03*
X8980000Y9395000D03*
X16600000Y14475000D03*
X8980000Y11935000D03*
X16600000Y11935000D03*
X8980000Y14475000D03*
X16600000Y9395000D03*
D15*
X8980000Y17015000D03*
D16*
X24200000Y12625000D03*
X19700000Y12625000D03*
X19700000Y20575000D03*
X24200000Y20575000D03*
X1650000Y16700000D03*
X6150000Y16700000D03*
X6150000Y8750000D03*
X1650000Y8750000D03*
D17*
X16700000Y24175000D03*
X16700000Y19675000D03*
X8750000Y19675000D03*
X8750000Y24175000D03*
D12*
G36*
X22224505Y23473796D02*
G01*
X22248773Y23470196D01*
X22272572Y23464235D01*
X22295671Y23455970D01*
X22317850Y23445480D01*
X22338893Y23432868D01*
X22358599Y23418253D01*
X22376777Y23401777D01*
X22393253Y23383599D01*
X22407868Y23363893D01*
X22420480Y23342850D01*
X22430970Y23320671D01*
X22439235Y23297572D01*
X22445196Y23273773D01*
X22448796Y23249505D01*
X22450000Y23225001D01*
X22450000Y22324999D01*
X22448796Y22300495D01*
X22445196Y22276227D01*
X22439235Y22252428D01*
X22430970Y22229329D01*
X22420480Y22207150D01*
X22407868Y22186107D01*
X22393253Y22166401D01*
X22376777Y22148223D01*
X22358599Y22131747D01*
X22338893Y22117132D01*
X22317850Y22104520D01*
X22295671Y22094030D01*
X22272572Y22085765D01*
X22248773Y22079804D01*
X22224505Y22076204D01*
X22200001Y22075000D01*
X21549999Y22075000D01*
X21525495Y22076204D01*
X21501227Y22079804D01*
X21477428Y22085765D01*
X21454329Y22094030D01*
X21432150Y22104520D01*
X21411107Y22117132D01*
X21391401Y22131747D01*
X21373223Y22148223D01*
X21356747Y22166401D01*
X21342132Y22186107D01*
X21329520Y22207150D01*
X21319030Y22229329D01*
X21310765Y22252428D01*
X21304804Y22276227D01*
X21301204Y22300495D01*
X21300000Y22324999D01*
X21300000Y23225001D01*
X21301204Y23249505D01*
X21304804Y23273773D01*
X21310765Y23297572D01*
X21319030Y23320671D01*
X21329520Y23342850D01*
X21342132Y23363893D01*
X21356747Y23383599D01*
X21373223Y23401777D01*
X21391401Y23418253D01*
X21411107Y23432868D01*
X21432150Y23445480D01*
X21454329Y23455970D01*
X21477428Y23464235D01*
X21501227Y23470196D01*
X21525495Y23473796D01*
X21549999Y23475000D01*
X22200001Y23475000D01*
X22224505Y23473796D01*
X22224505Y23473796D01*
G37*
D13*
X21875000Y22775000D03*
D12*
G36*
X24274505Y23473796D02*
G01*
X24298773Y23470196D01*
X24322572Y23464235D01*
X24345671Y23455970D01*
X24367850Y23445480D01*
X24388893Y23432868D01*
X24408599Y23418253D01*
X24426777Y23401777D01*
X24443253Y23383599D01*
X24457868Y23363893D01*
X24470480Y23342850D01*
X24480970Y23320671D01*
X24489235Y23297572D01*
X24495196Y23273773D01*
X24498796Y23249505D01*
X24500000Y23225001D01*
X24500000Y22324999D01*
X24498796Y22300495D01*
X24495196Y22276227D01*
X24489235Y22252428D01*
X24480970Y22229329D01*
X24470480Y22207150D01*
X24457868Y22186107D01*
X24443253Y22166401D01*
X24426777Y22148223D01*
X24408599Y22131747D01*
X24388893Y22117132D01*
X24367850Y22104520D01*
X24345671Y22094030D01*
X24322572Y22085765D01*
X24298773Y22079804D01*
X24274505Y22076204D01*
X24250001Y22075000D01*
X23599999Y22075000D01*
X23575495Y22076204D01*
X23551227Y22079804D01*
X23527428Y22085765D01*
X23504329Y22094030D01*
X23482150Y22104520D01*
X23461107Y22117132D01*
X23441401Y22131747D01*
X23423223Y22148223D01*
X23406747Y22166401D01*
X23392132Y22186107D01*
X23379520Y22207150D01*
X23369030Y22229329D01*
X23360765Y22252428D01*
X23354804Y22276227D01*
X23351204Y22300495D01*
X23350000Y22324999D01*
X23350000Y23225001D01*
X23351204Y23249505D01*
X23354804Y23273773D01*
X23360765Y23297572D01*
X23369030Y23320671D01*
X23379520Y23342850D01*
X23392132Y23363893D01*
X23406747Y23383599D01*
X23423223Y23401777D01*
X23441401Y23418253D01*
X23461107Y23432868D01*
X23482150Y23445480D01*
X23504329Y23455970D01*
X23527428Y23464235D01*
X23551227Y23470196D01*
X23575495Y23473796D01*
X23599999Y23475000D01*
X24250001Y23475000D01*
X24274505Y23473796D01*
X24274505Y23473796D01*
G37*
D13*
X23925000Y22775000D03*
D12*
G36*
X3899505Y19523796D02*
G01*
X3923773Y19520196D01*
X3947572Y19514235D01*
X3970671Y19505970D01*
X3992850Y19495480D01*
X4013893Y19482868D01*
X4033599Y19468253D01*
X4051777Y19451777D01*
X4068253Y19433599D01*
X4082868Y19413893D01*
X4095480Y19392850D01*
X4105970Y19370671D01*
X4114235Y19347572D01*
X4120196Y19323773D01*
X4123796Y19299505D01*
X4125000Y19275001D01*
X4125000Y18374999D01*
X4123796Y18350495D01*
X4120196Y18326227D01*
X4114235Y18302428D01*
X4105970Y18279329D01*
X4095480Y18257150D01*
X4082868Y18236107D01*
X4068253Y18216401D01*
X4051777Y18198223D01*
X4033599Y18181747D01*
X4013893Y18167132D01*
X3992850Y18154520D01*
X3970671Y18144030D01*
X3947572Y18135765D01*
X3923773Y18129804D01*
X3899505Y18126204D01*
X3875001Y18125000D01*
X3224999Y18125000D01*
X3200495Y18126204D01*
X3176227Y18129804D01*
X3152428Y18135765D01*
X3129329Y18144030D01*
X3107150Y18154520D01*
X3086107Y18167132D01*
X3066401Y18181747D01*
X3048223Y18198223D01*
X3031747Y18216401D01*
X3017132Y18236107D01*
X3004520Y18257150D01*
X2994030Y18279329D01*
X2985765Y18302428D01*
X2979804Y18326227D01*
X2976204Y18350495D01*
X2975000Y18374999D01*
X2975000Y19275001D01*
X2976204Y19299505D01*
X2979804Y19323773D01*
X2985765Y19347572D01*
X2994030Y19370671D01*
X3004520Y19392850D01*
X3017132Y19413893D01*
X3031747Y19433599D01*
X3048223Y19451777D01*
X3066401Y19468253D01*
X3086107Y19482868D01*
X3107150Y19495480D01*
X3129329Y19505970D01*
X3152428Y19514235D01*
X3176227Y19520196D01*
X3200495Y19523796D01*
X3224999Y19525000D01*
X3875001Y19525000D01*
X3899505Y19523796D01*
X3899505Y19523796D01*
G37*
D13*
X3550000Y18825000D03*
D12*
G36*
X1849505Y19523796D02*
G01*
X1873773Y19520196D01*
X1897572Y19514235D01*
X1920671Y19505970D01*
X1942850Y19495480D01*
X1963893Y19482868D01*
X1983599Y19468253D01*
X2001777Y19451777D01*
X2018253Y19433599D01*
X2032868Y19413893D01*
X2045480Y19392850D01*
X2055970Y19370671D01*
X2064235Y19347572D01*
X2070196Y19323773D01*
X2073796Y19299505D01*
X2075000Y19275001D01*
X2075000Y18374999D01*
X2073796Y18350495D01*
X2070196Y18326227D01*
X2064235Y18302428D01*
X2055970Y18279329D01*
X2045480Y18257150D01*
X2032868Y18236107D01*
X2018253Y18216401D01*
X2001777Y18198223D01*
X1983599Y18181747D01*
X1963893Y18167132D01*
X1942850Y18154520D01*
X1920671Y18144030D01*
X1897572Y18135765D01*
X1873773Y18129804D01*
X1849505Y18126204D01*
X1825001Y18125000D01*
X1174999Y18125000D01*
X1150495Y18126204D01*
X1126227Y18129804D01*
X1102428Y18135765D01*
X1079329Y18144030D01*
X1057150Y18154520D01*
X1036107Y18167132D01*
X1016401Y18181747D01*
X998223Y18198223D01*
X981747Y18216401D01*
X967132Y18236107D01*
X954520Y18257150D01*
X944030Y18279329D01*
X935765Y18302428D01*
X929804Y18326227D01*
X926204Y18350495D01*
X925000Y18374999D01*
X925000Y19275001D01*
X926204Y19299505D01*
X929804Y19323773D01*
X935765Y19347572D01*
X944030Y19370671D01*
X954520Y19392850D01*
X967132Y19413893D01*
X981747Y19433599D01*
X998223Y19451777D01*
X1016401Y19468253D01*
X1036107Y19482868D01*
X1057150Y19495480D01*
X1079329Y19505970D01*
X1102428Y19514235D01*
X1126227Y19520196D01*
X1150495Y19523796D01*
X1174999Y19525000D01*
X1825001Y19525000D01*
X1849505Y19523796D01*
X1849505Y19523796D01*
G37*
D13*
X1500000Y18825000D03*
D18*
X21480000Y7055000D02*
X21750000Y7055000D01*
X16600000Y11935000D02*
X21480000Y7055000D01*
X11670000Y3575000D02*
X10200000Y5045000D01*
X9770000Y5475000D02*
X4300000Y5475000D01*
X10200000Y5045000D02*
X9770000Y5475000D01*
X13535000Y17015000D02*
X12900000Y17650000D01*
X16600000Y17015000D02*
X13535000Y17015000D01*
X13020001Y2224999D02*
X20074999Y2224999D01*
X11670000Y3575000D02*
X13020001Y2224999D01*
X20074999Y2224999D02*
X21000000Y3150000D01*
D19*
X22350001Y3264999D02*
X23000001Y3914999D01*
X21189997Y3264999D02*
X22350001Y3264999D01*
X21074998Y3150000D02*
X21189997Y3264999D01*
X21000000Y3150000D02*
X21074998Y3150000D01*
D18*
X23100001Y4014999D02*
X23000001Y3914999D01*
X23100001Y8244999D02*
X23100001Y4014999D01*
X21750000Y9595000D02*
X23100001Y8244999D01*
X17900001Y15714999D02*
X16600000Y17015000D01*
X17900001Y11994999D02*
X17900001Y15714999D01*
X20300000Y9595000D02*
X17900001Y11994999D01*
X21750000Y9595000D02*
X20300000Y9595000D01*
X14210000Y6790020D02*
X14210000Y3575000D01*
X14175010Y6825010D02*
X14210000Y6790020D01*
X14175010Y6825010D02*
X14175010Y12231332D01*
X11931342Y14475000D02*
X14175010Y12231332D01*
X8980000Y14475000D02*
X11931342Y14475000D01*
X15800001Y13675001D02*
X16600000Y14475000D01*
X15299999Y13174999D02*
X15800001Y13675001D01*
X15299999Y6475001D02*
X15299999Y13174999D01*
X16750000Y5025000D02*
X15299999Y6475001D01*
X16750000Y3575000D02*
X16750000Y5025000D01*
X5950000Y20175000D02*
X6000000Y20125000D01*
X3050000Y19325000D02*
X3900000Y20175000D01*
X3900000Y20175000D02*
X5950000Y20175000D01*
X11030000Y9395000D02*
X8980000Y9395000D01*
X12250000Y6575000D02*
X12250000Y8175000D01*
X12250000Y8175000D02*
X11030000Y9395000D01*
X8750000Y24175000D02*
X16700000Y24175000D01*
X5375000Y24175000D02*
X3950000Y22750000D01*
X8750000Y24175000D02*
X5375000Y24175000D01*
X1650000Y8750000D02*
X1650000Y16700000D01*
X1650000Y18675000D02*
X1500000Y18825000D01*
X1650000Y16700000D02*
X1650000Y18675000D01*
X24200000Y12625000D02*
X24200000Y20575000D01*
X24200000Y22500000D02*
X23925000Y22775000D01*
X24200000Y20575000D02*
X24200000Y22500000D01*
X16870000Y9395000D02*
X16600000Y9395000D01*
X21750000Y4515000D02*
X16870000Y9395000D01*
X10125000Y19675000D02*
X16700000Y19675000D01*
X8750000Y19675000D02*
X10125000Y19675000D01*
X6150000Y14765000D02*
X6150000Y16700000D01*
X8980000Y11935000D02*
X6150000Y14765000D01*
X18800000Y19675000D02*
X19700000Y20575000D01*
X16700000Y19675000D02*
X18800000Y19675000D01*
X19700000Y14000000D02*
X19700000Y12625000D01*
X19700000Y18050000D02*
X19700000Y14000000D01*
X18075000Y19675000D02*
X19700000Y18050000D01*
X16700000Y19675000D02*
X18075000Y19675000D01*
X6150000Y17075000D02*
X8750000Y19675000D01*
X6150000Y16700000D02*
X6150000Y17075000D01*
X9315000Y11600000D02*
X8980000Y11935000D01*
X11400000Y11600000D02*
X9315000Y11600000D01*
X6150000Y9105000D02*
X8980000Y11935000D01*
X6150000Y8750000D02*
X6150000Y9105000D01*
D20*
G36*
X4710656Y24839344D02*
G01*
X4681374Y24803664D01*
X3840783Y23963072D01*
X3499999Y23963072D01*
X3326745Y23946008D01*
X3160149Y23895472D01*
X3006613Y23813405D01*
X2872038Y23702962D01*
X2761595Y23568387D01*
X2679528Y23414851D01*
X2628992Y23248255D01*
X2611928Y23075001D01*
X2611928Y22424999D01*
X2628992Y22251745D01*
X2679528Y22085149D01*
X2761595Y21931613D01*
X2872038Y21797038D01*
X3006613Y21686595D01*
X3160149Y21604528D01*
X3326745Y21553992D01*
X3499999Y21536928D01*
X4400001Y21536928D01*
X4573255Y21553992D01*
X4739851Y21604528D01*
X4893387Y21686595D01*
X5027962Y21797038D01*
X5138405Y21931613D01*
X5220472Y22085149D01*
X5271008Y22251745D01*
X5288072Y22424999D01*
X5288072Y22765783D01*
X5762290Y23240000D01*
X7407317Y23240000D01*
X7444463Y23170506D01*
X7523815Y23073815D01*
X7620506Y22994463D01*
X7730820Y22935498D01*
X7850518Y22899188D01*
X7975000Y22886928D01*
X9525000Y22886928D01*
X9649482Y22899188D01*
X9769180Y22935498D01*
X9879494Y22994463D01*
X9976185Y23073815D01*
X10055537Y23170506D01*
X10092683Y23240000D01*
X15357317Y23240000D01*
X15394463Y23170506D01*
X15473815Y23073815D01*
X15570506Y22994463D01*
X15680820Y22935498D01*
X15800518Y22899188D01*
X15925000Y22886928D01*
X17475000Y22886928D01*
X17599482Y22899188D01*
X17719180Y22935498D01*
X17829494Y22994463D01*
X17926185Y23073815D01*
X18005537Y23170506D01*
X18064502Y23280820D01*
X18100812Y23400518D01*
X18113072Y23525000D01*
X18113072Y24825000D01*
X18106670Y24890000D01*
X24865000Y24890000D01*
X24865000Y23863600D01*
X24743387Y23963405D01*
X24589851Y24045472D01*
X24423255Y24096008D01*
X24250001Y24113072D01*
X23599999Y24113072D01*
X23426745Y24096008D01*
X23260149Y24045472D01*
X23106613Y23963405D01*
X22972038Y23852962D01*
X22861595Y23718387D01*
X22779528Y23564851D01*
X22728992Y23398255D01*
X22711928Y23225001D01*
X22711928Y22324999D01*
X22728992Y22151745D01*
X22779528Y21985149D01*
X22861595Y21831613D01*
X22972038Y21697038D01*
X23002232Y21672258D01*
X22960498Y21594180D01*
X22924188Y21474482D01*
X22911928Y21350000D01*
X22911928Y19800000D01*
X22924188Y19675518D01*
X22960498Y19555820D01*
X23019463Y19445506D01*
X23098815Y19348815D01*
X23195506Y19269463D01*
X23265001Y19232317D01*
X23265000Y13967683D01*
X23195506Y13930537D01*
X23098815Y13851185D01*
X23019463Y13754494D01*
X22960498Y13644180D01*
X22924188Y13524482D01*
X22911928Y13400000D01*
X22911928Y11850000D01*
X22924188Y11725518D01*
X22960498Y11605820D01*
X23019463Y11495506D01*
X23098815Y11398815D01*
X23195506Y11319463D01*
X23305820Y11260498D01*
X23425518Y11224188D01*
X23550000Y11211928D01*
X24850000Y11211928D01*
X24865001Y11213405D01*
X24865001Y760000D01*
X735000Y760000D01*
X735000Y5475000D01*
X2807815Y5475000D01*
X2836487Y5183889D01*
X2921401Y4903966D01*
X3059294Y4645986D01*
X3244866Y4419866D01*
X3470986Y4234294D01*
X3728966Y4096401D01*
X4008889Y4011487D01*
X4227050Y3990000D01*
X4372950Y3990000D01*
X4591111Y4011487D01*
X4871034Y4096401D01*
X5129014Y4234294D01*
X5355134Y4419866D01*
X5453725Y4540000D01*
X5657112Y4540000D01*
X5661595Y4531613D01*
X5772038Y4397038D01*
X5906613Y4286595D01*
X6060149Y4204528D01*
X6226745Y4153992D01*
X6399999Y4136928D01*
X7300001Y4136928D01*
X7473255Y4153992D01*
X7639851Y4204528D01*
X7793387Y4286595D01*
X7927962Y4397038D01*
X8038405Y4531613D01*
X8042888Y4540000D01*
X9382712Y4540000D01*
X9506373Y4416339D01*
X9506377Y4416334D01*
X10193048Y3729663D01*
X10177815Y3575000D01*
X10206487Y3283889D01*
X10291401Y3003966D01*
X10429294Y2745986D01*
X10614866Y2519866D01*
X10840986Y2334294D01*
X11098966Y2196401D01*
X11378889Y2111487D01*
X11597050Y2090000D01*
X11742950Y2090000D01*
X11824663Y2098048D01*
X12326371Y1596340D01*
X12355657Y1560655D01*
X12498029Y1443813D01*
X12603881Y1387234D01*
X12660460Y1356992D01*
X12836709Y1303527D01*
X13020001Y1285475D01*
X13065936Y1289999D01*
X20029067Y1289999D01*
X20074999Y1285475D01*
X20120931Y1289999D01*
X20258291Y1303528D01*
X20434539Y1356992D01*
X20596971Y1443813D01*
X20739343Y1560655D01*
X20768629Y1596340D01*
X21602288Y2429999D01*
X22308983Y2429999D01*
X22350001Y2425959D01*
X22391019Y2429999D01*
X22391020Y2429999D01*
X22513690Y2442081D01*
X22671088Y2489827D01*
X22816147Y2567363D01*
X22943292Y2671708D01*
X22969446Y2703577D01*
X23292538Y3026668D01*
X23359541Y3046993D01*
X23521972Y3133814D01*
X23628667Y3221376D01*
X23728660Y3321369D01*
X23764345Y3350655D01*
X23881187Y3493027D01*
X23968008Y3655459D01*
X24021472Y3831707D01*
X24032529Y3943966D01*
X24039525Y4014998D01*
X24035001Y4060930D01*
X24035001Y8199064D01*
X24039525Y8244999D01*
X24021473Y8428291D01*
X23968008Y8604540D01*
X23914809Y8704068D01*
X23881187Y8766971D01*
X23764345Y8909343D01*
X23728661Y8938628D01*
X23238072Y9429217D01*
X23238072Y10445000D01*
X23225812Y10569482D01*
X23189502Y10689180D01*
X23130537Y10799494D01*
X23051185Y10896185D01*
X22954494Y10975537D01*
X22844180Y11034502D01*
X22724482Y11070812D01*
X22600000Y11083072D01*
X20900000Y11083072D01*
X20775518Y11070812D01*
X20655820Y11034502D01*
X20545506Y10975537D01*
X20448815Y10896185D01*
X20391249Y10826041D01*
X20005362Y11211928D01*
X20350000Y11211928D01*
X20474482Y11224188D01*
X20594180Y11260498D01*
X20704494Y11319463D01*
X20801185Y11398815D01*
X20880537Y11495506D01*
X20939502Y11605820D01*
X20975812Y11725518D01*
X20988072Y11850000D01*
X20988072Y13400000D01*
X20975812Y13524482D01*
X20939502Y13644180D01*
X20880537Y13754494D01*
X20801185Y13851185D01*
X20704494Y13930537D01*
X20635000Y13967683D01*
X20635000Y18004069D01*
X20639524Y18050001D01*
X20621471Y18233293D01*
X20600317Y18303029D01*
X20568007Y18409540D01*
X20481186Y18571972D01*
X20364344Y18714344D01*
X20328665Y18743624D01*
X19910362Y19161928D01*
X20350000Y19161928D01*
X20474482Y19174188D01*
X20594180Y19210498D01*
X20704494Y19269463D01*
X20801185Y19348815D01*
X20880537Y19445506D01*
X20939502Y19555820D01*
X20975812Y19675518D01*
X20988072Y19800000D01*
X20988072Y21350000D01*
X20975812Y21474482D01*
X20939502Y21594180D01*
X20880537Y21704494D01*
X20801185Y21801185D01*
X20704494Y21880537D01*
X20594180Y21939502D01*
X20474482Y21975812D01*
X20350000Y21988072D01*
X19050000Y21988072D01*
X18925518Y21975812D01*
X18805820Y21939502D01*
X18695506Y21880537D01*
X18598815Y21801185D01*
X18519463Y21704494D01*
X18460498Y21594180D01*
X18424188Y21474482D01*
X18411928Y21350000D01*
X18411928Y20610000D01*
X18120932Y20610000D01*
X18075000Y20614524D01*
X18042002Y20611274D01*
X18005537Y20679494D01*
X17926185Y20776185D01*
X17829494Y20855537D01*
X17719180Y20914502D01*
X17599482Y20950812D01*
X17475000Y20963072D01*
X15925000Y20963072D01*
X15800518Y20950812D01*
X15680820Y20914502D01*
X15570506Y20855537D01*
X15473815Y20776185D01*
X15394463Y20679494D01*
X15357317Y20610000D01*
X14013220Y20610000D01*
X13977962Y20652962D01*
X13843387Y20763405D01*
X13689851Y20845472D01*
X13523255Y20896008D01*
X13350001Y20913072D01*
X12449999Y20913072D01*
X12276745Y20896008D01*
X12110149Y20845472D01*
X11956613Y20763405D01*
X11822038Y20652962D01*
X11786780Y20610000D01*
X10092683Y20610000D01*
X10055537Y20679494D01*
X9976185Y20776185D01*
X9879494Y20855537D01*
X9769180Y20914502D01*
X9649482Y20950812D01*
X9525000Y20963072D01*
X7975000Y20963072D01*
X7850518Y20950812D01*
X7730820Y20914502D01*
X7620506Y20855537D01*
X7523815Y20776185D01*
X7444463Y20679494D01*
X7385498Y20569180D01*
X7349188Y20449482D01*
X7336928Y20325000D01*
X7336928Y19584218D01*
X5865783Y18113072D01*
X5500000Y18113072D01*
X5375518Y18100812D01*
X5255820Y18064502D01*
X5145506Y18005537D01*
X5048815Y17926185D01*
X4969463Y17829494D01*
X4910498Y17719180D01*
X4874188Y17599482D01*
X4861928Y17475000D01*
X4861928Y15925000D01*
X4874188Y15800518D01*
X4910498Y15680820D01*
X4969463Y15570506D01*
X5048815Y15473815D01*
X5145506Y15394463D01*
X5215000Y15357317D01*
X5215000Y14810932D01*
X5210476Y14765000D01*
X5215000Y14719069D01*
X5228529Y14581709D01*
X5281993Y14405461D01*
X5368814Y14243029D01*
X5485656Y14100656D01*
X5521341Y14071370D01*
X7548785Y12043925D01*
X7538057Y11935000D01*
X7548785Y11826075D01*
X5885783Y10163072D01*
X5500000Y10163072D01*
X5375518Y10150812D01*
X5255820Y10114502D01*
X5145506Y10055537D01*
X5048815Y9976185D01*
X4969463Y9879494D01*
X4910498Y9769180D01*
X4874188Y9649482D01*
X4861928Y9525000D01*
X4861928Y7975000D01*
X4874188Y7850518D01*
X4910498Y7730820D01*
X4969463Y7620506D01*
X5048815Y7523815D01*
X5145506Y7444463D01*
X5255820Y7385498D01*
X5375518Y7349188D01*
X5500000Y7336928D01*
X6800000Y7336928D01*
X6924482Y7349188D01*
X7044180Y7385498D01*
X7154494Y7444463D01*
X7251185Y7523815D01*
X7330537Y7620506D01*
X7389502Y7730820D01*
X7425812Y7850518D01*
X7438072Y7975000D01*
X7438072Y9070783D01*
X8871075Y10503785D01*
X8909508Y10500000D01*
X9050492Y10500000D01*
X9261309Y10520764D01*
X9531808Y10602818D01*
X9648142Y10665000D01*
X10007112Y10665000D01*
X10011595Y10656613D01*
X10122038Y10522038D01*
X10256613Y10411595D01*
X10410149Y10329528D01*
X10576745Y10278992D01*
X10749999Y10261928D01*
X11650001Y10261928D01*
X11823255Y10278992D01*
X11989851Y10329528D01*
X12143387Y10411595D01*
X12277962Y10522038D01*
X12388405Y10656613D01*
X12470472Y10810149D01*
X12521008Y10976745D01*
X12538072Y11149999D01*
X12538072Y11800001D01*
X12521008Y11973255D01*
X12470472Y12139851D01*
X12388405Y12293387D01*
X12277962Y12427962D01*
X12143387Y12538405D01*
X11989851Y12620472D01*
X11823255Y12671008D01*
X11650001Y12688072D01*
X10749999Y12688072D01*
X10576745Y12671008D01*
X10410149Y12620472D01*
X10278383Y12550041D01*
X10178932Y12736101D01*
X9999608Y12954608D01*
X9781101Y13133932D01*
X9648142Y13205000D01*
X9781101Y13276068D01*
X9999608Y13455392D01*
X10069044Y13540000D01*
X11544053Y13540000D01*
X13240011Y11844042D01*
X13240010Y6870942D01*
X13235486Y6825010D01*
X13240010Y6779079D01*
X13253539Y6641719D01*
X13275000Y6570971D01*
X13275001Y4728726D01*
X13154866Y4630134D01*
X12969294Y4404014D01*
X12940000Y4349209D01*
X12910706Y4404014D01*
X12725134Y4630134D01*
X12499014Y4815706D01*
X12241034Y4953599D01*
X11961111Y5038513D01*
X11742950Y5060000D01*
X11597050Y5060000D01*
X11515337Y5051952D01*
X10828666Y5738623D01*
X10828661Y5738627D01*
X10463631Y6103658D01*
X10434344Y6139344D01*
X10291972Y6256186D01*
X10129540Y6343007D01*
X9953292Y6396471D01*
X9815932Y6410000D01*
X9770000Y6414524D01*
X9724068Y6410000D01*
X7797536Y6410000D01*
X7793387Y6413405D01*
X7639851Y6495472D01*
X7473255Y6546008D01*
X7300001Y6563072D01*
X6399999Y6563072D01*
X6226745Y6546008D01*
X6060149Y6495472D01*
X5906613Y6413405D01*
X5902464Y6410000D01*
X5453725Y6410000D01*
X5355134Y6530134D01*
X5129014Y6715706D01*
X4871034Y6853599D01*
X4591111Y6938513D01*
X4372950Y6960000D01*
X4227050Y6960000D01*
X4008889Y6938513D01*
X3728966Y6853599D01*
X3470986Y6715706D01*
X3244866Y6530134D01*
X3059294Y6304014D01*
X2921401Y6046034D01*
X2836487Y5766111D01*
X2807815Y5475000D01*
X735000Y5475000D01*
X735000Y7396627D01*
X755820Y7385498D01*
X875518Y7349188D01*
X1000000Y7336928D01*
X2300000Y7336928D01*
X2424482Y7349188D01*
X2544180Y7385498D01*
X2654494Y7444463D01*
X2751185Y7523815D01*
X2830537Y7620506D01*
X2889502Y7730820D01*
X2925812Y7850518D01*
X2938072Y7975000D01*
X2938072Y9525000D01*
X2925812Y9649482D01*
X2889502Y9769180D01*
X2830537Y9879494D01*
X2751185Y9976185D01*
X2654494Y10055537D01*
X2585000Y10092683D01*
X2585000Y15357317D01*
X2654494Y15394463D01*
X2751185Y15473815D01*
X2830537Y15570506D01*
X2889502Y15680820D01*
X2925812Y15800518D01*
X2938072Y15925000D01*
X2938072Y17475000D01*
X2925812Y17599482D01*
X2889502Y17719180D01*
X2830537Y17829494D01*
X2751185Y17926185D01*
X2654494Y18005537D01*
X2635166Y18015868D01*
X2645472Y18035149D01*
X2696008Y18201745D01*
X2713072Y18374999D01*
X2713072Y19275001D01*
X2696008Y19448255D01*
X2645472Y19614851D01*
X2563405Y19768387D01*
X2452962Y19902962D01*
X2318387Y20013405D01*
X2164851Y20095472D01*
X1998255Y20146008D01*
X1825001Y20163072D01*
X1174999Y20163072D01*
X1001745Y20146008D01*
X835149Y20095472D01*
X735000Y20041941D01*
X735000Y24890000D01*
X4772380Y24890000D01*
X4710656Y24839344D01*
X4710656Y24839344D01*
G37*
X4710656Y24839344D02*
X4681374Y24803664D01*
X3840783Y23963072D01*
X3499999Y23963072D01*
X3326745Y23946008D01*
X3160149Y23895472D01*
X3006613Y23813405D01*
X2872038Y23702962D01*
X2761595Y23568387D01*
X2679528Y23414851D01*
X2628992Y23248255D01*
X2611928Y23075001D01*
X2611928Y22424999D01*
X2628992Y22251745D01*
X2679528Y22085149D01*
X2761595Y21931613D01*
X2872038Y21797038D01*
X3006613Y21686595D01*
X3160149Y21604528D01*
X3326745Y21553992D01*
X3499999Y21536928D01*
X4400001Y21536928D01*
X4573255Y21553992D01*
X4739851Y21604528D01*
X4893387Y21686595D01*
X5027962Y21797038D01*
X5138405Y21931613D01*
X5220472Y22085149D01*
X5271008Y22251745D01*
X5288072Y22424999D01*
X5288072Y22765783D01*
X5762290Y23240000D01*
X7407317Y23240000D01*
X7444463Y23170506D01*
X7523815Y23073815D01*
X7620506Y22994463D01*
X7730820Y22935498D01*
X7850518Y22899188D01*
X7975000Y22886928D01*
X9525000Y22886928D01*
X9649482Y22899188D01*
X9769180Y22935498D01*
X9879494Y22994463D01*
X9976185Y23073815D01*
X10055537Y23170506D01*
X10092683Y23240000D01*
X15357317Y23240000D01*
X15394463Y23170506D01*
X15473815Y23073815D01*
X15570506Y22994463D01*
X15680820Y22935498D01*
X15800518Y22899188D01*
X15925000Y22886928D01*
X17475000Y22886928D01*
X17599482Y22899188D01*
X17719180Y22935498D01*
X17829494Y22994463D01*
X17926185Y23073815D01*
X18005537Y23170506D01*
X18064502Y23280820D01*
X18100812Y23400518D01*
X18113072Y23525000D01*
X18113072Y24825000D01*
X18106670Y24890000D01*
X24865000Y24890000D01*
X24865000Y23863600D01*
X24743387Y23963405D01*
X24589851Y24045472D01*
X24423255Y24096008D01*
X24250001Y24113072D01*
X23599999Y24113072D01*
X23426745Y24096008D01*
X23260149Y24045472D01*
X23106613Y23963405D01*
X22972038Y23852962D01*
X22861595Y23718387D01*
X22779528Y23564851D01*
X22728992Y23398255D01*
X22711928Y23225001D01*
X22711928Y22324999D01*
X22728992Y22151745D01*
X22779528Y21985149D01*
X22861595Y21831613D01*
X22972038Y21697038D01*
X23002232Y21672258D01*
X22960498Y21594180D01*
X22924188Y21474482D01*
X22911928Y21350000D01*
X22911928Y19800000D01*
X22924188Y19675518D01*
X22960498Y19555820D01*
X23019463Y19445506D01*
X23098815Y19348815D01*
X23195506Y19269463D01*
X23265001Y19232317D01*
X23265000Y13967683D01*
X23195506Y13930537D01*
X23098815Y13851185D01*
X23019463Y13754494D01*
X22960498Y13644180D01*
X22924188Y13524482D01*
X22911928Y13400000D01*
X22911928Y11850000D01*
X22924188Y11725518D01*
X22960498Y11605820D01*
X23019463Y11495506D01*
X23098815Y11398815D01*
X23195506Y11319463D01*
X23305820Y11260498D01*
X23425518Y11224188D01*
X23550000Y11211928D01*
X24850000Y11211928D01*
X24865001Y11213405D01*
X24865001Y760000D01*
X735000Y760000D01*
X735000Y5475000D01*
X2807815Y5475000D01*
X2836487Y5183889D01*
X2921401Y4903966D01*
X3059294Y4645986D01*
X3244866Y4419866D01*
X3470986Y4234294D01*
X3728966Y4096401D01*
X4008889Y4011487D01*
X4227050Y3990000D01*
X4372950Y3990000D01*
X4591111Y4011487D01*
X4871034Y4096401D01*
X5129014Y4234294D01*
X5355134Y4419866D01*
X5453725Y4540000D01*
X5657112Y4540000D01*
X5661595Y4531613D01*
X5772038Y4397038D01*
X5906613Y4286595D01*
X6060149Y4204528D01*
X6226745Y4153992D01*
X6399999Y4136928D01*
X7300001Y4136928D01*
X7473255Y4153992D01*
X7639851Y4204528D01*
X7793387Y4286595D01*
X7927962Y4397038D01*
X8038405Y4531613D01*
X8042888Y4540000D01*
X9382712Y4540000D01*
X9506373Y4416339D01*
X9506377Y4416334D01*
X10193048Y3729663D01*
X10177815Y3575000D01*
X10206487Y3283889D01*
X10291401Y3003966D01*
X10429294Y2745986D01*
X10614866Y2519866D01*
X10840986Y2334294D01*
X11098966Y2196401D01*
X11378889Y2111487D01*
X11597050Y2090000D01*
X11742950Y2090000D01*
X11824663Y2098048D01*
X12326371Y1596340D01*
X12355657Y1560655D01*
X12498029Y1443813D01*
X12603881Y1387234D01*
X12660460Y1356992D01*
X12836709Y1303527D01*
X13020001Y1285475D01*
X13065936Y1289999D01*
X20029067Y1289999D01*
X20074999Y1285475D01*
X20120931Y1289999D01*
X20258291Y1303528D01*
X20434539Y1356992D01*
X20596971Y1443813D01*
X20739343Y1560655D01*
X20768629Y1596340D01*
X21602288Y2429999D01*
X22308983Y2429999D01*
X22350001Y2425959D01*
X22391019Y2429999D01*
X22391020Y2429999D01*
X22513690Y2442081D01*
X22671088Y2489827D01*
X22816147Y2567363D01*
X22943292Y2671708D01*
X22969446Y2703577D01*
X23292538Y3026668D01*
X23359541Y3046993D01*
X23521972Y3133814D01*
X23628667Y3221376D01*
X23728660Y3321369D01*
X23764345Y3350655D01*
X23881187Y3493027D01*
X23968008Y3655459D01*
X24021472Y3831707D01*
X24032529Y3943966D01*
X24039525Y4014998D01*
X24035001Y4060930D01*
X24035001Y8199064D01*
X24039525Y8244999D01*
X24021473Y8428291D01*
X23968008Y8604540D01*
X23914809Y8704068D01*
X23881187Y8766971D01*
X23764345Y8909343D01*
X23728661Y8938628D01*
X23238072Y9429217D01*
X23238072Y10445000D01*
X23225812Y10569482D01*
X23189502Y10689180D01*
X23130537Y10799494D01*
X23051185Y10896185D01*
X22954494Y10975537D01*
X22844180Y11034502D01*
X22724482Y11070812D01*
X22600000Y11083072D01*
X20900000Y11083072D01*
X20775518Y11070812D01*
X20655820Y11034502D01*
X20545506Y10975537D01*
X20448815Y10896185D01*
X20391249Y10826041D01*
X20005362Y11211928D01*
X20350000Y11211928D01*
X20474482Y11224188D01*
X20594180Y11260498D01*
X20704494Y11319463D01*
X20801185Y11398815D01*
X20880537Y11495506D01*
X20939502Y11605820D01*
X20975812Y11725518D01*
X20988072Y11850000D01*
X20988072Y13400000D01*
X20975812Y13524482D01*
X20939502Y13644180D01*
X20880537Y13754494D01*
X20801185Y13851185D01*
X20704494Y13930537D01*
X20635000Y13967683D01*
X20635000Y18004069D01*
X20639524Y18050001D01*
X20621471Y18233293D01*
X20600317Y18303029D01*
X20568007Y18409540D01*
X20481186Y18571972D01*
X20364344Y18714344D01*
X20328665Y18743624D01*
X19910362Y19161928D01*
X20350000Y19161928D01*
X20474482Y19174188D01*
X20594180Y19210498D01*
X20704494Y19269463D01*
X20801185Y19348815D01*
X20880537Y19445506D01*
X20939502Y19555820D01*
X20975812Y19675518D01*
X20988072Y19800000D01*
X20988072Y21350000D01*
X20975812Y21474482D01*
X20939502Y21594180D01*
X20880537Y21704494D01*
X20801185Y21801185D01*
X20704494Y21880537D01*
X20594180Y21939502D01*
X20474482Y21975812D01*
X20350000Y21988072D01*
X19050000Y21988072D01*
X18925518Y21975812D01*
X18805820Y21939502D01*
X18695506Y21880537D01*
X18598815Y21801185D01*
X18519463Y21704494D01*
X18460498Y21594180D01*
X18424188Y21474482D01*
X18411928Y21350000D01*
X18411928Y20610000D01*
X18120932Y20610000D01*
X18075000Y20614524D01*
X18042002Y20611274D01*
X18005537Y20679494D01*
X17926185Y20776185D01*
X17829494Y20855537D01*
X17719180Y20914502D01*
X17599482Y20950812D01*
X17475000Y20963072D01*
X15925000Y20963072D01*
X15800518Y20950812D01*
X15680820Y20914502D01*
X15570506Y20855537D01*
X15473815Y20776185D01*
X15394463Y20679494D01*
X15357317Y20610000D01*
X14013220Y20610000D01*
X13977962Y20652962D01*
X13843387Y20763405D01*
X13689851Y20845472D01*
X13523255Y20896008D01*
X13350001Y20913072D01*
X12449999Y20913072D01*
X12276745Y20896008D01*
X12110149Y20845472D01*
X11956613Y20763405D01*
X11822038Y20652962D01*
X11786780Y20610000D01*
X10092683Y20610000D01*
X10055537Y20679494D01*
X9976185Y20776185D01*
X9879494Y20855537D01*
X9769180Y20914502D01*
X9649482Y20950812D01*
X9525000Y20963072D01*
X7975000Y20963072D01*
X7850518Y20950812D01*
X7730820Y20914502D01*
X7620506Y20855537D01*
X7523815Y20776185D01*
X7444463Y20679494D01*
X7385498Y20569180D01*
X7349188Y20449482D01*
X7336928Y20325000D01*
X7336928Y19584218D01*
X5865783Y18113072D01*
X5500000Y18113072D01*
X5375518Y18100812D01*
X5255820Y18064502D01*
X5145506Y18005537D01*
X5048815Y17926185D01*
X4969463Y17829494D01*
X4910498Y17719180D01*
X4874188Y17599482D01*
X4861928Y17475000D01*
X4861928Y15925000D01*
X4874188Y15800518D01*
X4910498Y15680820D01*
X4969463Y15570506D01*
X5048815Y15473815D01*
X5145506Y15394463D01*
X5215000Y15357317D01*
X5215000Y14810932D01*
X5210476Y14765000D01*
X5215000Y14719069D01*
X5228529Y14581709D01*
X5281993Y14405461D01*
X5368814Y14243029D01*
X5485656Y14100656D01*
X5521341Y14071370D01*
X7548785Y12043925D01*
X7538057Y11935000D01*
X7548785Y11826075D01*
X5885783Y10163072D01*
X5500000Y10163072D01*
X5375518Y10150812D01*
X5255820Y10114502D01*
X5145506Y10055537D01*
X5048815Y9976185D01*
X4969463Y9879494D01*
X4910498Y9769180D01*
X4874188Y9649482D01*
X4861928Y9525000D01*
X4861928Y7975000D01*
X4874188Y7850518D01*
X4910498Y7730820D01*
X4969463Y7620506D01*
X5048815Y7523815D01*
X5145506Y7444463D01*
X5255820Y7385498D01*
X5375518Y7349188D01*
X5500000Y7336928D01*
X6800000Y7336928D01*
X6924482Y7349188D01*
X7044180Y7385498D01*
X7154494Y7444463D01*
X7251185Y7523815D01*
X7330537Y7620506D01*
X7389502Y7730820D01*
X7425812Y7850518D01*
X7438072Y7975000D01*
X7438072Y9070783D01*
X8871075Y10503785D01*
X8909508Y10500000D01*
X9050492Y10500000D01*
X9261309Y10520764D01*
X9531808Y10602818D01*
X9648142Y10665000D01*
X10007112Y10665000D01*
X10011595Y10656613D01*
X10122038Y10522038D01*
X10256613Y10411595D01*
X10410149Y10329528D01*
X10576745Y10278992D01*
X10749999Y10261928D01*
X11650001Y10261928D01*
X11823255Y10278992D01*
X11989851Y10329528D01*
X12143387Y10411595D01*
X12277962Y10522038D01*
X12388405Y10656613D01*
X12470472Y10810149D01*
X12521008Y10976745D01*
X12538072Y11149999D01*
X12538072Y11800001D01*
X12521008Y11973255D01*
X12470472Y12139851D01*
X12388405Y12293387D01*
X12277962Y12427962D01*
X12143387Y12538405D01*
X11989851Y12620472D01*
X11823255Y12671008D01*
X11650001Y12688072D01*
X10749999Y12688072D01*
X10576745Y12671008D01*
X10410149Y12620472D01*
X10278383Y12550041D01*
X10178932Y12736101D01*
X9999608Y12954608D01*
X9781101Y13133932D01*
X9648142Y13205000D01*
X9781101Y13276068D01*
X9999608Y13455392D01*
X10069044Y13540000D01*
X11544053Y13540000D01*
X13240011Y11844042D01*
X13240010Y6870942D01*
X13235486Y6825010D01*
X13240010Y6779079D01*
X13253539Y6641719D01*
X13275000Y6570971D01*
X13275001Y4728726D01*
X13154866Y4630134D01*
X12969294Y4404014D01*
X12940000Y4349209D01*
X12910706Y4404014D01*
X12725134Y4630134D01*
X12499014Y4815706D01*
X12241034Y4953599D01*
X11961111Y5038513D01*
X11742950Y5060000D01*
X11597050Y5060000D01*
X11515337Y5051952D01*
X10828666Y5738623D01*
X10828661Y5738627D01*
X10463631Y6103658D01*
X10434344Y6139344D01*
X10291972Y6256186D01*
X10129540Y6343007D01*
X9953292Y6396471D01*
X9815932Y6410000D01*
X9770000Y6414524D01*
X9724068Y6410000D01*
X7797536Y6410000D01*
X7793387Y6413405D01*
X7639851Y6495472D01*
X7473255Y6546008D01*
X7300001Y6563072D01*
X6399999Y6563072D01*
X6226745Y6546008D01*
X6060149Y6495472D01*
X5906613Y6413405D01*
X5902464Y6410000D01*
X5453725Y6410000D01*
X5355134Y6530134D01*
X5129014Y6715706D01*
X4871034Y6853599D01*
X4591111Y6938513D01*
X4372950Y6960000D01*
X4227050Y6960000D01*
X4008889Y6938513D01*
X3728966Y6853599D01*
X3470986Y6715706D01*
X3244866Y6530134D01*
X3059294Y6304014D01*
X2921401Y6046034D01*
X2836487Y5766111D01*
X2807815Y5475000D01*
X735000Y5475000D01*
X735000Y7396627D01*
X755820Y7385498D01*
X875518Y7349188D01*
X1000000Y7336928D01*
X2300000Y7336928D01*
X2424482Y7349188D01*
X2544180Y7385498D01*
X2654494Y7444463D01*
X2751185Y7523815D01*
X2830537Y7620506D01*
X2889502Y7730820D01*
X2925812Y7850518D01*
X2938072Y7975000D01*
X2938072Y9525000D01*
X2925812Y9649482D01*
X2889502Y9769180D01*
X2830537Y9879494D01*
X2751185Y9976185D01*
X2654494Y10055537D01*
X2585000Y10092683D01*
X2585000Y15357317D01*
X2654494Y15394463D01*
X2751185Y15473815D01*
X2830537Y15570506D01*
X2889502Y15680820D01*
X2925812Y15800518D01*
X2938072Y15925000D01*
X2938072Y17475000D01*
X2925812Y17599482D01*
X2889502Y17719180D01*
X2830537Y17829494D01*
X2751185Y17926185D01*
X2654494Y18005537D01*
X2635166Y18015868D01*
X2645472Y18035149D01*
X2696008Y18201745D01*
X2713072Y18374999D01*
X2713072Y19275001D01*
X2696008Y19448255D01*
X2645472Y19614851D01*
X2563405Y19768387D01*
X2452962Y19902962D01*
X2318387Y20013405D01*
X2164851Y20095472D01*
X1998255Y20146008D01*
X1825001Y20163072D01*
X1174999Y20163072D01*
X1001745Y20146008D01*
X835149Y20095472D01*
X735000Y20041941D01*
X735000Y24890000D01*
X4772380Y24890000D01*
X4710656Y24839344D01*
M02*
